inDegrees=no
num_controls=7
num_derivatives=13
num_iterations=100
num_multipliers=7
num_parameters=0
num_slacks=7
num_states=26
objective=0.454735
objective_accelerations=0.037076
objective_balance=0.007822
objective_effort=0.033072
objective_height=0.371568
objective_ligament=0.005198
solver_duration=1478.494426
status=Solve_Succeeded
success=true
DataType=double
version=3
OpenSimVersion=4.5
endheader
time	/jointset/ground_pelvis/pelvis_tilt/value	/jointset/ground_pelvis/pelvis_tx/value	/jointset/ground_pelvis/pelvis_ty/value	/jointset/hip_l/hip_flexion_l/value	/jointset/hip_l/hip_adduction_l/value	/jointset/hip_l/hip_rotation_l/value	/jointset/back/lumbar_extension/value	/jointset/patellofemoral_l/patellar_flexion_l/value	/jointset/knee_l/knee_flexion_l/value	/jointset/knee_l/knee_adduction_l/value	/jointset/knee_l/knee_rotation_l/value	/jointset/ankle_l/ankle_angle_l/value	/jointset/subtalar_l/subtalar_angle_l/value	/jointset/ground_pelvis/pelvis_tilt/speed	/jointset/ground_pelvis/pelvis_tx/speed	/jointset/ground_pelvis/pelvis_ty/speed	/jointset/hip_l/hip_flexion_l/speed	/jointset/hip_l/hip_adduction_l/speed	/jointset/hip_l/hip_rotation_l/speed	/jointset/back/lumbar_extension/speed	/jointset/patellofemoral_l/patellar_flexion_l/speed	/jointset/knee_l/knee_flexion_l/speed	/jointset/knee_l/knee_adduction_l/speed	/jointset/knee_l/knee_rotation_l/speed	/jointset/ankle_l/ankle_angle_l/speed	/jointset/subtalar_l/subtalar_angle_l/speed	/forceset/tau_hip_flexion_l	/forceset/tau_hip_adduction_l	/forceset/tau_hip_rotation_l	/forceset/tau_knee_flexion_l	/forceset/tau_ankle_angle_l	/forceset/tau_subtalar_angle_l	/forceset/tau_lumbar_extension	lambda_cid13_p0	lambda_cid13_p1	lambda_cid13_p2	lambda_cid13_p3	lambda_cid13_p4	lambda_cid13_p5	lambda_cid14_p0	/jointset/ground_pelvis/pelvis_tilt/accel	/jointset/ground_pelvis/pelvis_tx/accel	/jointset/ground_pelvis/pelvis_ty/accel	/jointset/hip_l/hip_flexion_l/accel	/jointset/hip_l/hip_adduction_l/accel	/jointset/hip_l/hip_rotation_l/accel	/jointset/back/lumbar_extension/accel	/jointset/patellofemoral_l/patellar_flexion_l/accel	/jointset/knee_l/knee_flexion_l/accel	/jointset/knee_l/knee_adduction_l/accel	/jointset/knee_l/knee_rotation_l/accel	/jointset/ankle_l/ankle_angle_l/accel	/jointset/subtalar_l/subtalar_angle_l/accel	gamma_cid13_p0	gamma_cid13_p1	gamma_cid13_p2	gamma_cid13_p3	gamma_cid13_p4	gamma_cid13_p5	gamma_cid14_p0
1	-0.6513507890518808	-0.1330232539024957	0.6724677502511854	1.715937693824482	-0.3124251317423963	0.02329948993744479	-0.4363136003582636	0.8966710852771684	0.8966710852771691	-0.1742822100334768	0.1743581728922048	0.005752901378719275	-0.06037147353418064	-0.009998799522500497	0.001211322097856021	-0.002725402318304748	0.01555560803272133	0.0007025175363319905	0.003300471336663549	-0.0003566469385918709	0.00971775525442393	0.00971775525442393	0.0008812577618461943	-2.738062553060862e-05	0.005089564730894247	0.001586486010731171	-0.4245099826956225	0.0294029498045689	-0.0188242802861965	-0.1892824857999929	0.1472479816885008	0.0464747955050417	0.3426767164227086	2.353673712607847	-21.43039676795307	3.967122873901354	4.800270071998131	-704.9325818962009	-47.75925266344563	-15.66234522209297	2.121201695445175	0.3749035148192509	1.232364318902053	-5.437460687743307	-0.07503091026081168	-1.255707892148567	-0.04577196546115919	-3.54294240951418	-3.54294240951418	-0.02084373564190354	0.001333195187330457	-0.439621164527964	-0.1200997008536109	-4.599658068910164e-10	2.462614469652439e-10	-7.354337988460576e-10	8.240775479417259e-10	1.055098009797562e-09	2.325802257481424e-09	-1.498263560655715e-10
1.01	-0.6513461936887968	-0.1329925144540526	0.672501902218623	1.715823182656363	-0.3124212328140721	0.02326933030367138	-0.4363177667685715	0.8965912638973091	0.8965912638973101	-0.1742730780815522	0.1743576363419822	0.005781817767313902	-0.06036098568147628	0.01084000439475277	0.00493114650157362	0.009544621861935415	-0.03837214782472825	8.27997695027644e-05	-0.009356233580328131	-0.0003866264052815835	-0.02568668469634498	-0.02568668469634481	0.0009688873110715456	-7.016433821078643e-05	0.0006798119738111828	0.0005140201285599348	-0.4243347049144195	0.02940744567784808	-0.01882948349065378	-0.1892709403178182	0.147240414580095	0.046469290810738	0.3425960136280294	2.362762202778699	-21.43091504622588	3.968710510964466	4.779139977320223	-704.7558743848566	-47.76909906538766	-15.66736572597805	2.05353955212046	0.3697089242764849	1.222645096398395	-5.357579019282669	-0.05461141609702137	-1.274228106146096	0.03189037038721946	-3.539892639394299	-3.539892639394298	0.02712825433957742	-0.005619603984806303	-0.4437377641065071	-0.1003787771258552	-9.819204902349848e-10	-4.749161244368531e-09	-1.116429153438605e-09	9.215618140732201e-10	-1.373487260226949e-09	3.307901225127651e-09	-8.379212007005067e-10
1.02	-0.6511355463240893	-0.1329247393573465	0.6726584191536258	1.715171964732763	-0.3124233649046568	0.02311188835779375	-0.4363195327120145	0.8961572585476351	0.8961572585476362	-0.1742623574433083	0.1743569648647351	0.005766219541776092	-0.06036113423663902	0.03121160080220849	0.008618451750429579	0.02174759119471173	-0.09178574306365354	-0.0005036862454481899	-0.02215599108418622	0.0001234464344326138	-0.0611190387085568	-0.06111903870855679	0.001198995025689809	-5.436603045446352e-05	-0.003813358095593083	-0.0005407955626903117	-0.4241594271332174	0.02941194155112727	-0.01883468669511112	-0.1892593948356434	0.1472328474716912	0.0464637861164343	0.3425153108333501	2.364734016180006	-21.43115990761201	3.971365668837574	4.773512387490933	-704.6791847900354	-47.76984242681799	-15.69464666589111	2.027760193485663	0.368399683846923	1.218953349409284	-5.334628564038454	-0.06838455988515726	-1.284318409521971	0.06223849581962315	-3.548525221802827	-3.548525221802827	0.007651897436678829	0.01304959927473814	-0.4563046269922044	-0.1165696626694128	-2.866224635823013e-09	-1.156310205963403e-08	1.5302352870977e-08	-1.14384016291798e-12	-6.171494070811615e-09	9.792939485902213e-09	-4.370372927922493e-09
1.03	-0.6507215171315394	-0.1328200612376889	0.6729368632419737	1.713987023961548	-0.3124313425401825	0.02282620591700744	-0.4363157409989082	0.89536898172389	0.895368981723892	-0.1742492005549788	0.1743566750946617	0.005705629585610453	-0.06037182352479551	0.05171776909433618	0.01233108254937813	0.03395352060345518	-0.145333940701363	-0.001100947968050076	-0.03495729741508985	0.0004992149391920616	-0.09652188048079428	-0.09652188048079434	0.001398612868874452	-7.010256188706102e-07	-0.00828264425360496	-0.00160212930981343	-0.4239613286811902	0.02946196478946992	-0.01883660314464137	-0.1892340046387295	0.1473602343583706	0.04649361330433392	0.3423958988552659	2.411103844512422	-21.45680767320298	3.980680094575967	4.662513831846089	-704.6432769251487	-47.81694698113141	-15.74421122799313	2.080573793117136	0.3747811406536917	1.223254627934204	-5.384646092194759	-0.05676502476610396	-1.274564168530059	0.004893840659961811	-3.533995213034612	-3.533995213034613	0.02104847586976439	0.001950090658595544	-0.4389419121621463	-0.1016761897402378	-4.764430306535989e-09	-1.839559918228659e-08	3.18925611951785e-08	-9.342595956273032e-10	-1.099367865221834e-08	1.633413018844342e-08	-7.931848704966813e-09
1.04	-0.65009872052686	-0.1326778395374948	0.6733377350026744	1.712262655068245	-0.3124455664021979	0.02241320492818102	-0.4363122620381832	0.8942271101708027	0.8942271101708054	-0.1742350611385952	0.1743570070025508	0.005601006507473399	-0.06039327834222452	0.07296508322809658	0.0161271678577214	0.04623312566529202	-0.1996713674813757	-0.001752931543380109	-0.04761970069221358	6.089595818578944e-05	-0.1318379845770481	-0.1318379845770481	0.001395500636488235	6.996956203944398e-05	-0.01261998248987554	-0.00269390141719561	-0.4237632302291631	0.02951198802781254	-0.01883851959417093	-0.1892086144418156	0.14748762124505	0.0465234404922335	0.3422764868771817	2.4503058703913	-21.48220524653255	3.991102498964509	4.566719953246487	-704.7083119816933	-47.85503709731041	-15.81601114668516	2.175989361812209	0.3850905857258659	1.233688480027961	-5.492474392499128	-0.07932893043078636	-1.25653779876599	-0.1005790013335206	-3.531177686606093	-3.531177686606086	-0.03289411767749321	0.01645071583905251	-0.4299150426439451	-0.1226573347212251	-6.483881168084385e-09	-1.856691112438482e-08	4.12914214429824e-08	9.752469342151988e-10	-1.255698298793523e-08	1.92169847602021e-08	-9.320416929742391e-09
1.05	-0.6492609911024881	-0.1324972447808449	0.6738615785944012	1.709992420431394	-0.3124662139353792	0.02187479599818484	-0.436315160956551	0.8927326178542622	0.8927326178542639	-0.1742217015766957	0.1743574550207583	0.00545374934812554	-0.0604254177413248	0.0945829019147577	0.02000552947562518	0.05852898201896051	-0.2543647196376416	-0.002348444175472706	-0.05999034123929432	-0.000572214780156355	-0.1670340518727293	-0.1670340518727293	0.001272732165256748	-4.259258479854969e-05	-0.01680037311327075	-0.003700055151978543	-0.4237655740991105	0.02969563853660194	-0.01881148637804119	-0.1889107141452002	0.1475346530141603	0.04659964438823126	0.3425040585986053	2.472849009646372	-21.52733995817242	4.007541485837171	4.347541038730451	-704.7310810409817	-47.91009534727944	-15.91000420196424	2.154991875721693	0.3912714652299522	1.22653979541579	-5.456141191365234	-0.04544727452332305	-1.216575116361575	-0.03440738234807039	-3.509855080744464	-3.509855080744473	-0.002522249980508172	-0.03445534533517058	-0.4074390473589641	-0.08450894764606928	-8.197745941846387e-09	-1.853006102959076e-08	5.046555206339892e-08	2.973585410473525e-09	-1.401844731597433e-08	2.198551632787383e-08	-1.064108179350958e-08
1.06	-0.6482070207405237	-0.1322774539049345	0.6745081818661408	1.707175577160145	-0.3124919735638663	0.02121483107598137	-0.4363223370367549	0.8908869580988258	0.8908869580988268	-0.1742096805071354	0.1743549082844194	0.005265620687509398	-0.06046660158873075	0.1162132707465643	0.02396639170982157	0.07078506166780919	-0.308993094360904	-0.002775350604558898	-0.07193089913367347	-0.0007945364090388186	-0.2020714723562241	-0.2020714723562241	0.001127802168646143	-0.0005289813472343587	-0.02079428274353219	-0.004502791078331153	-0.4237679179690581	0.0298792890453913	-0.01878445316191079	-0.1886128138485849	0.1475816847832727	0.04667584828422901	0.3427316303200288	2.488252897548973	-21.57219041294597	4.025038404443953	4.141595825966439	-704.8562220043826	-47.95679707628056	-16.02599815247218	2.178499390841303	0.401590708984389	1.225733139064004	-5.4794789058984	-0.04560768982950538	-1.170521268225672	-0.01842117944158425	-3.499448324168818	-3.499448324168818	-0.03732642275331666	-0.05831460728051031	-0.3926188440171917	-0.08197377303516043	-8.607352663934817e-09	-3.51091407226773e-08	4.661587555793368e-08	1.473316680057514e-10	-1.711368872592267e-08	2.45256972372088e-08	-1.287819319902552e-08
1.07	-0.6469368978408897	-0.1320176182647984	0.6752770819425395	1.703813000675932	-0.3125214323582186	0.02043631140127171	-0.4363292634439103	0.8886918670313076	0.8886918670313075	-0.1741988011066594	0.1743468716956884	0.005038387426973515	-0.06051508913885889	0.1377913521824384	0.02801692058131888	0.08298180776566773	-0.3634881098596349	-0.003114256188162901	-0.08383273462574263	-0.00047925639293346	-0.2369048452105731	-0.2369048452105733	0.001088806444056863	-0.001016056936620148	-0.02463039831367008	-0.005188643323144043	-0.4235906287485439	0.03004356378925982	-0.01877478919571129	-0.1882381816823742	0.1476474944705306	0.04679426165719952	0.3429139742734633	2.524253241644752	-21.64093094443625	4.048573858601927	3.875192420439418	-704.7903977336352	-48.05012075465108	-16.16384306637003	2.14446715296723	0.409210985114817	1.214669364040034	-5.429401229901914	-0.02770806152499284	-1.208984454037878	0.07322588650150641	-3.46899431040651	-3.468994310406499	0.01891353675868866	-0.0345742976408431	-0.3758126789246953	-0.06097596834615907	-8.947583957742729e-09	-5.257204646831079e-08	4.207344335428314e-08	-2.935549320138972e-09	-2.029583317214279e-08	2.70537318349301e-08	-1.516405176101746e-08
1.08	-0.6454515932002955	-0.1317167919341709	0.6761675542836955	1.699906496365122	-0.3125542154221853	0.01953697941877331	-0.4363296923920317	0.8861496997263781	0.8861496997263767	-0.1741870917266131	0.1743358302984887	0.00477345205765373	-0.06057025221506351	0.1592496189385832	0.03216452980811246	0.09509951461925679	-0.4177786596800264	-0.003440204527458914	-0.09609336069142546	0.0005049553977683734	-0.2714867198384648	-0.2714867198384647	0.00129379808269345	-0.00112994304093464	-0.0283347045003123	-0.005837896293629175	-0.4234133395280297	0.03020783853312832	-0.01876512522951179	-0.1878635495161636	0.1477133041577886	0.04691267503017003	0.3430963182268978	2.553149291097266	-21.70940121765308	4.07317846742704	3.620328675842206	-704.8280150370667	-48.13613959120313	-16.32341009426033	2.154536454895462	0.4210067800436208	1.209925290210113	-5.438585770230654	-0.04301624096790743	-1.242279382948409	0.1153651754777127	-3.449148678877355	-3.449148678877355	0.01147104989185721	0.01632328973379842	-0.3662569673180597	-0.07465391816960931	-1.479207153741828e-08	-6.306007029601291e-08	6.528261588575303e-08	1.427621026374787e-09	-2.593314719678526e-08	3.655480409112206e-08	-2.056064464105949e-08
